<mxfile host="app.diagrams.net" modified="2024-04-07T11:28:48.753Z" agent="Mozilla/5.0 (Windows NT 10.0; Win64; x64) AppleWebKit/537.36 (KHTML, like Gecko) Chrome/123.0.0.0 Safari/537.36 Edg/123.0.0.0" etag="JlYRBHfcoOdJSERX8WfS" version="24.2.2" type="device">
  <diagram name="StrÃ¡nka-1" id="Nw6Lz56_d4YaKbXMYdp-">
    <mxGraphModel dx="778" dy="2124" grid="1" gridSize="10" guides="1" tooltips="1" connect="1" arrows="1" fold="1" page="1" pageScale="1" pageWidth="900" pageHeight="200" math="0" shadow="0">
      <root>
        <mxCell id="0" />
        <mxCell id="1" parent="0" />
        <mxCell id="gQmV6lnIhRn_MguI03QE-1" value="/cmd_vel" style="rounded=0;whiteSpace=wrap;html=1;" vertex="1" parent="1">
          <mxGeometry x="1105" y="-1130" width="120" height="60" as="geometry" />
        </mxCell>
        <mxCell id="gQmV6lnIhRn_MguI03QE-23" style="edgeStyle=orthogonalEdgeStyle;rounded=0;orthogonalLoop=1;jettySize=auto;html=1;entryX=0.75;entryY=0;entryDx=0;entryDy=0;" edge="1" parent="1" source="gQmV6lnIhRn_MguI03QE-3" target="gQmV6lnIhRn_MguI03QE-1">
          <mxGeometry relative="1" as="geometry" />
        </mxCell>
        <mxCell id="gQmV6lnIhRn_MguI03QE-25" style="edgeStyle=orthogonalEdgeStyle;rounded=0;orthogonalLoop=1;jettySize=auto;html=1;entryX=0.75;entryY=0;entryDx=0;entryDy=0;exitX=0;exitY=0;exitDx=0;exitDy=0;" edge="1" parent="1" source="gQmV6lnIhRn_MguI03QE-3" target="gQmV6lnIhRn_MguI03QE-8">
          <mxGeometry relative="1" as="geometry" />
        </mxCell>
        <mxCell id="gQmV6lnIhRn_MguI03QE-3" value="keyboard_node" style="ellipse;whiteSpace=wrap;html=1;" vertex="1" parent="1">
          <mxGeometry x="1235" y="-1190" width="140" height="80" as="geometry" />
        </mxCell>
        <mxCell id="gQmV6lnIhRn_MguI03QE-26" style="edgeStyle=orthogonalEdgeStyle;rounded=0;orthogonalLoop=1;jettySize=auto;html=1;entryX=0.75;entryY=1;entryDx=0;entryDy=0;exitX=0;exitY=1;exitDx=0;exitDy=0;" edge="1" parent="1" source="gQmV6lnIhRn_MguI03QE-6" target="gQmV6lnIhRn_MguI03QE-8">
          <mxGeometry relative="1" as="geometry" />
        </mxCell>
        <mxCell id="gQmV6lnIhRn_MguI03QE-6" value="gamepad_node" style="ellipse;whiteSpace=wrap;html=1;" vertex="1" parent="1">
          <mxGeometry x="1235" y="-1090" width="140" height="80" as="geometry" />
        </mxCell>
        <mxCell id="gQmV6lnIhRn_MguI03QE-8" value="&lt;div&gt;&amp;lt;&amp;lt;action&amp;gt;&amp;gt;&lt;/div&gt;/put_servo_to_pos" style="shape=parallelogram;perimeter=parallelogramPerimeter;whiteSpace=wrap;html=1;fixedSize=1;" vertex="1" parent="1">
          <mxGeometry x="945" y="-1130" width="150" height="60" as="geometry" />
        </mxCell>
        <mxCell id="gQmV6lnIhRn_MguI03QE-13" style="edgeStyle=orthogonalEdgeStyle;rounded=0;orthogonalLoop=1;jettySize=auto;html=1;" edge="1" parent="1" source="gQmV6lnIhRn_MguI03QE-9" target="gQmV6lnIhRn_MguI03QE-12">
          <mxGeometry relative="1" as="geometry" />
        </mxCell>
        <mxCell id="gQmV6lnIhRn_MguI03QE-14" style="edgeStyle=orthogonalEdgeStyle;rounded=0;orthogonalLoop=1;jettySize=auto;html=1;entryX=1;entryY=0.5;entryDx=0;entryDy=0;" edge="1" parent="1" source="gQmV6lnIhRn_MguI03QE-9" target="gQmV6lnIhRn_MguI03QE-11">
          <mxGeometry relative="1" as="geometry" />
        </mxCell>
        <mxCell id="gQmV6lnIhRn_MguI03QE-9" value="ui_bridge_node" style="ellipse;whiteSpace=wrap;html=1;" vertex="1" parent="1">
          <mxGeometry x="1615" y="-1140" width="140" height="80" as="geometry" />
        </mxCell>
        <mxCell id="gQmV6lnIhRn_MguI03QE-15" style="edgeStyle=orthogonalEdgeStyle;rounded=0;orthogonalLoop=1;jettySize=auto;html=1;entryX=1;entryY=0.5;entryDx=0;entryDy=0;" edge="1" parent="1" source="gQmV6lnIhRn_MguI03QE-11" target="gQmV6lnIhRn_MguI03QE-6">
          <mxGeometry relative="1" as="geometry" />
        </mxCell>
        <mxCell id="gQmV6lnIhRn_MguI03QE-11" value="/toggle_gamepad" style="rounded=0;whiteSpace=wrap;html=1;" vertex="1" parent="1">
          <mxGeometry x="1435" y="-1080" width="120" height="60" as="geometry" />
        </mxCell>
        <mxCell id="gQmV6lnIhRn_MguI03QE-16" style="edgeStyle=orthogonalEdgeStyle;rounded=0;orthogonalLoop=1;jettySize=auto;html=1;entryX=1;entryY=0.5;entryDx=0;entryDy=0;" edge="1" parent="1" source="gQmV6lnIhRn_MguI03QE-12" target="gQmV6lnIhRn_MguI03QE-3">
          <mxGeometry relative="1" as="geometry" />
        </mxCell>
        <mxCell id="gQmV6lnIhRn_MguI03QE-12" value="/toggle_keyboard" style="rounded=0;whiteSpace=wrap;html=1;" vertex="1" parent="1">
          <mxGeometry x="1435" y="-1180" width="120" height="60" as="geometry" />
        </mxCell>
        <mxCell id="gQmV6lnIhRn_MguI03QE-24" style="edgeStyle=orthogonalEdgeStyle;rounded=0;orthogonalLoop=1;jettySize=auto;html=1;entryX=0.787;entryY=1.017;entryDx=0;entryDy=0;entryPerimeter=0;" edge="1" parent="1" source="gQmV6lnIhRn_MguI03QE-6" target="gQmV6lnIhRn_MguI03QE-1">
          <mxGeometry relative="1" as="geometry" />
        </mxCell>
      </root>
    </mxGraphModel>
  </diagram>
</mxfile>
